<?xml version="1.0" encoding="UTF-8"?>
<svg id="Layer_1" data-name="Layer 1" xmlns="http://www.w3.org/2000/svg" viewBox="0 0 768 768">
  <defs>
    <style>
      .cls-1 {
        fill: #fd522c;
      }
    </style>
  </defs>
  <g>
    <path class="cls-1" d="M381.67,452.04l-151.06-155.22c-15.37-17.34-23.11-37.95-22.39-59.6,.63-19.07,8.16-37.79,20.65-51.38l.15-.16,102.4-106.14c15.58-15.19,33.41-22.96,51.59-22.45,17.56,.48,34.69,8.84,48.25,23.54q104.2,105.05,104.42,105.28c23.72,24.7,30.82,70.04-1.51,108.88l-.48,.54-152.02,156.73Zm-136.98-167.98l136.96,140.71,138.15-142.43c24.92-30.18,20.01-64.68,2.23-83.25-2.48-2.51-103.34-104.19-104.37-105.23l-.25-.26c-10.07-10.96-22.47-17.19-34.91-17.53-12.92-.35-25.91,5.51-37.7,16.97l-102.01,105.74c-18.58,20.28-23.87,56.02,1.91,85.27Z"/>
    <path class="cls-1" d="M382.79,711c-.55,0-1.1,0-1.65-.02-17.56-.48-34.69-8.84-48.25-23.54q-104.2-105.05-104.42-105.28c-23.72-24.7-30.82-70.04,1.51-108.88l.48-.54,152.02-156.73,151.06,155.22c15.37,17.34,23.11,37.96,22.39,59.6-.63,19.07-8.16,37.79-20.65,51.38l-.16,.16-102.4,106.14c-15.11,14.73-32.34,22.48-49.94,22.48Zm-140.65-142.04c2.54,2.57,103.34,104.19,104.37,105.22l.25,.26c10.07,10.96,22.47,17.19,34.91,17.53,12.85,.36,25.91-5.51,37.7-16.97l102.01-105.74c18.58-20.28,23.87-56.02-1.91-85.27l-136.96-140.72-138.15,142.43c-24.92,30.18-20.01,64.68-2.22,83.25Z"/>
  </g>
  <path class="cls-1" d="M600.89,512.99h0c-3.79-3.66-3.87-9.71-.19-13.48,12.23-12.49,41.19-42.07,86.53-88.37l.14-.14c18.81-18.42,18.51-34.54-1.06-55.6-3.33-3.27-59-57.94-88.81-86.66-3.77-3.63-3.89-9.62-.27-13.41h0c3.64-3.8,9.67-3.93,13.45-.28,30.66,29.54,88.47,86.32,89.09,86.94l.29,.3c14.2,15.23,20.95,30.42,20.06,45.16-.78,12.89-7.12,25.01-19.39,37.05-2.47,2.52-65.63,67.02-86.47,88.31-3.65,3.73-9.63,3.81-13.39,.18Z"/>
  <path class="cls-1" d="M167.11,512.99h0c3.79-3.66,3.87-9.71,.19-13.48-12.23-12.49-41.19-42.07-86.53-88.37l-.14-.14c-18.81-18.42-18.51-34.54,1.06-55.6,3.33-3.27,59-57.94,88.81-86.66,3.77-3.63,3.89-9.62,.27-13.41h0c-3.64-3.8-9.67-3.93-13.45-.28-30.66,29.54-88.47,86.32-89.09,86.94l-.29,.3c-14.2,15.23-20.95,30.42-20.06,45.16,.78,12.89,7.12,25.01,19.39,37.05,2.47,2.52,65.63,67.02,86.47,88.31,3.65,3.73,9.63,3.81,13.39,.18Z"/>
</svg>