<svg width="259" height="77" viewBox="0 0 259 77" fill="none" xmlns="http://www.w3.org/2000/svg">
<path d="M131.266 45.3218L116.121 29.7594C114.58 28.0208 113.804 25.9545 113.876 23.7838C113.939 21.8719 114.694 19.995 115.947 18.6324L115.962 18.6164L126.228 7.97477C127.79 6.45181 129.578 5.67279 131.401 5.72392C133.161 5.77205 134.879 6.61022 136.238 8.08405C143.203 15.1056 146.693 18.6241 146.707 18.6395C149.086 21.1159 149.797 25.6617 146.556 29.5558L146.508 29.61L131.266 45.3238V45.3218ZM117.533 28.48L131.264 42.5877L145.115 28.3076C147.614 25.2817 147.122 21.8227 145.339 19.9609C145.09 19.7092 134.978 9.51477 134.875 9.4105L134.85 9.38443C133.84 8.28558 132.597 7.66095 131.35 7.62686C130.054 7.59177 128.752 8.1793 127.57 9.32828L117.342 19.9298C115.479 21.9631 114.949 25.5464 117.534 28.479L117.533 28.48Z" fill="#FD522C"/>
<path d="M131.379 71.2852C131.324 71.2852 131.268 71.2852 131.213 71.2832C129.453 71.2351 127.735 70.3969 126.376 68.9231C119.411 61.9015 115.921 58.383 115.906 58.3677C113.528 55.8912 112.816 51.3454 116.058 47.4513L116.106 47.3972L131.348 31.6833L146.493 47.2458C148.034 48.9843 148.81 51.0517 148.738 53.2213C148.675 55.1333 147.92 57.0101 146.667 58.3727L146.651 58.3887L136.385 69.0304C134.87 70.5072 133.142 71.2842 131.378 71.2842L131.379 71.2852ZM117.277 57.0442C117.532 57.3019 127.638 67.4904 127.741 67.5936L127.766 67.6197C128.776 68.7185 130.019 69.3432 131.266 69.3773C132.555 69.4133 133.864 68.8248 135.046 67.6758L145.274 57.0743C147.137 55.041 147.667 51.4577 145.082 48.5251L131.351 34.4164L117.5 48.6965C115.001 51.7224 115.493 55.1814 117.277 57.0432V57.0442Z" fill="#FD522C"/>
<path d="M153.245 51.4326C152.865 51.0657 152.857 50.4591 153.226 50.0811C154.453 48.8289 157.356 45.8632 161.902 41.2211L161.916 41.2071C163.802 39.3603 163.772 37.7441 161.81 35.6326C161.476 35.3047 155.894 29.8235 152.906 26.944C152.528 26.5801 152.516 25.9795 152.879 25.5995C153.243 25.2185 153.848 25.2055 154.227 25.5715C157.301 28.5331 163.097 34.2259 163.159 34.2881L163.188 34.3182C164.612 35.8451 165.289 37.3681 165.2 38.8459C165.121 40.1383 164.486 41.3534 163.255 42.5606C163.008 42.8132 156.675 49.28 154.586 51.4146C154.22 51.7885 153.62 51.7966 153.243 51.4326H153.245Z" fill="#FD522C"/>
<path d="M109.755 51.4326C110.135 51.0657 110.143 50.4591 109.774 50.0811C108.547 48.8289 105.644 45.8632 101.098 41.2211L101.084 41.2071C99.1982 39.3603 99.2282 37.7441 101.19 35.6326C101.524 35.3047 107.106 29.8235 110.094 26.944C110.472 26.5801 110.484 25.9795 110.122 25.5995C109.757 25.2185 109.152 25.2055 108.773 25.5715C105.699 28.5331 99.903 34.2259 99.8408 34.2881L99.8117 34.3182C98.3881 35.8451 97.7113 37.3681 97.8005 38.8459C97.8787 40.1383 98.5144 41.3534 99.7446 42.5606C99.9922 42.8132 106.325 49.28 108.414 51.4146C108.78 51.7885 109.38 51.7966 109.757 51.4326H109.755Z" fill="#FD522C"/>
<path d="M14.976 54.384C13.44 54.384 11.952 54.256 10.512 54C9.072 53.744 7.728 53.36 6.48 52.848C5.264 52.304 4.16 51.648 3.168 50.88C2.848 50.656 2.624 50.4 2.496 50.112C2.4 49.792 2.384 49.504 2.448 49.248C2.544 48.96 2.688 48.72 2.88 48.528C3.104 48.336 3.36 48.24 3.648 48.24C3.936 48.208 4.24 48.304 4.56 48.528C6.032 49.616 7.584 50.416 9.216 50.928C10.88 51.44 12.8 51.696 14.976 51.696C18.016 51.696 20.288 51.104 21.792 49.92C23.328 48.736 24.096 47.184 24.096 45.264C24.096 43.664 23.536 42.416 22.416 41.52C21.328 40.624 19.52 39.92 16.992 39.408L12.144 38.4C9.104 37.792 6.848 36.768 5.376 35.328C3.904 33.888 3.168 31.968 3.168 29.568C3.168 28.096 3.456 26.768 4.032 25.584C4.608 24.368 5.424 23.328 6.48 22.464C7.536 21.6 8.784 20.944 10.224 20.496C11.696 20.016 13.312 19.776 15.072 19.776C17.152 19.776 19.056 20.064 20.784 20.64C22.544 21.216 24.144 22.128 25.584 23.376C25.872 23.6 26.064 23.872 26.16 24.192C26.256 24.48 26.256 24.768 26.16 25.056C26.064 25.312 25.92 25.52 25.728 25.68C25.536 25.84 25.296 25.936 25.008 25.968C24.72 25.968 24.416 25.84 24.096 25.584C22.752 24.496 21.344 23.712 19.872 23.232C18.432 22.72 16.832 22.464 15.072 22.464C13.28 22.464 11.712 22.752 10.368 23.328C9.056 23.904 8.032 24.72 7.296 25.776C6.56 26.832 6.192 28.08 6.192 29.52C6.192 31.184 6.704 32.512 7.728 33.504C8.752 34.496 10.4 35.216 12.672 35.664L17.568 36.672C20.8 37.344 23.2 38.352 24.768 39.696C26.336 41.008 27.12 42.816 27.12 45.12C27.12 46.496 26.832 47.76 26.256 48.912C25.712 50.032 24.912 51.008 23.856 51.84C22.8 52.672 21.52 53.312 20.016 53.76C18.544 54.176 16.864 54.384 14.976 54.384ZM40.1963 54.384C38.6283 54.384 37.2203 54.08 35.9723 53.472C34.7563 52.864 33.7803 52.032 33.0443 50.976C32.3403 49.92 31.9883 48.736 31.9883 47.424C31.9883 45.696 32.4203 44.336 33.2843 43.344C34.1483 42.352 35.6043 41.664 37.6523 41.28C39.7003 40.864 42.5163 40.656 46.1003 40.656H48.1643V42.816H46.1483C43.2682 42.816 41.0123 42.944 39.3803 43.2C37.7803 43.424 36.6603 43.856 36.0203 44.496C35.3803 45.136 35.0603 46.032 35.0603 47.184C35.0603 48.624 35.5563 49.792 36.5483 50.688C37.5403 51.584 38.8843 52.032 40.5803 52.032C41.9563 52.032 43.1563 51.712 44.1803 51.072C45.2363 50.4 46.0683 49.488 46.6763 48.336C47.2843 47.184 47.5883 45.872 47.5883 44.4V38.928C47.5883 36.784 47.1563 35.232 46.2923 34.272C45.4283 33.28 44.0523 32.784 42.1643 32.784C40.9483 32.784 39.7643 32.944 38.6123 33.264C37.4923 33.584 36.2923 34.096 35.0123 34.8C34.6603 34.992 34.3403 35.056 34.0523 34.992C33.7963 34.928 33.5883 34.8 33.4283 34.608C33.3003 34.416 33.2043 34.192 33.1403 33.936C33.1083 33.648 33.1563 33.376 33.2843 33.12C33.4123 32.864 33.6363 32.656 33.9563 32.496C35.3003 31.76 36.6603 31.216 38.0363 30.864C39.4443 30.48 40.8043 30.288 42.1163 30.288C44.0043 30.288 45.5563 30.608 46.7723 31.248C48.0203 31.888 48.9323 32.848 49.5083 34.128C50.1163 35.408 50.4203 37.056 50.4203 39.072V52.8C50.4203 53.28 50.3083 53.648 50.0843 53.904C49.8603 54.16 49.5243 54.288 49.0763 54.288C48.6283 54.288 48.2763 54.16 48.0203 53.904C47.7643 53.648 47.6363 53.28 47.6363 52.8V48.384H48.1163C47.8283 49.632 47.3163 50.704 46.5803 51.6C45.8443 52.496 44.9323 53.184 43.8443 53.664C42.7563 54.144 41.5403 54.384 40.1963 54.384ZM66.24 54.288C65.76 54.288 65.36 54.16 65.04 53.904C64.72 53.648 64.432 53.264 64.176 52.752L55.536 32.592C55.376 32.208 55.312 31.856 55.344 31.536C55.408 31.184 55.552 30.912 55.776 30.72C56.032 30.496 56.384 30.384 56.832 30.384C57.248 30.384 57.552 30.48 57.744 30.672C57.968 30.864 58.16 31.168 58.32 31.584L66.864 52.224H65.664L74.256 31.584C74.416 31.168 74.608 30.864 74.832 30.672C75.056 30.48 75.376 30.384 75.792 30.384C76.208 30.384 76.512 30.496 76.704 30.72C76.928 30.912 77.056 31.168 77.088 31.488C77.12 31.808 77.056 32.16 76.896 32.544L68.256 52.752C68.064 53.264 67.792 53.648 67.44 53.904C67.088 54.16 66.688 54.288 66.24 54.288ZM83.7499 54.192C83.2699 54.192 82.9019 54.048 82.6459 53.76C82.3899 53.472 82.2619 53.088 82.2619 52.608V32.064C82.2619 31.552 82.3899 31.168 82.6459 30.912C82.9019 30.656 83.2699 30.528 83.7499 30.528C84.1979 30.528 84.5499 30.656 84.8059 30.912C85.0619 31.168 85.1899 31.552 85.1899 32.064V52.608C85.1899 53.088 85.0619 53.472 84.8059 53.76C84.5819 54.048 84.2299 54.192 83.7499 54.192ZM83.7499 24.72C83.0779 24.72 82.5499 24.544 82.1659 24.192C81.8139 23.84 81.6379 23.344 81.6379 22.704C81.6379 22.064 81.8139 21.584 82.1659 21.264C82.5499 20.912 83.0779 20.736 83.7499 20.736C84.4219 20.736 84.9339 20.912 85.2859 21.264C85.6699 21.584 85.8619 22.064 85.8619 22.704C85.8619 23.344 85.6699 23.84 85.2859 24.192C84.9339 24.544 84.4219 24.72 83.7499 24.72Z" fill="#5B5B5B"/>
<path d="M187.976 54.384C186.44 54.384 184.952 54.256 183.512 54C182.072 53.744 180.728 53.36 179.48 52.848C178.264 52.304 177.16 51.648 176.168 50.88C175.848 50.656 175.624 50.4 175.496 50.112C175.4 49.792 175.384 49.504 175.448 49.248C175.544 48.96 175.688 48.72 175.88 48.528C176.104 48.336 176.36 48.24 176.648 48.24C176.936 48.208 177.24 48.304 177.56 48.528C179.032 49.616 180.584 50.416 182.216 50.928C183.88 51.44 185.8 51.696 187.976 51.696C191.016 51.696 193.288 51.104 194.792 49.92C196.328 48.736 197.096 47.184 197.096 45.264C197.096 43.664 196.536 42.416 195.416 41.52C194.328 40.624 192.52 39.92 189.992 39.408L185.144 38.4C182.104 37.792 179.848 36.768 178.376 35.328C176.904 33.888 176.168 31.968 176.168 29.568C176.168 28.096 176.456 26.768 177.032 25.584C177.608 24.368 178.424 23.328 179.48 22.464C180.536 21.6 181.784 20.944 183.224 20.496C184.696 20.016 186.312 19.776 188.072 19.776C190.152 19.776 192.056 20.064 193.784 20.64C195.544 21.216 197.144 22.128 198.584 23.376C198.872 23.6 199.064 23.872 199.16 24.192C199.256 24.48 199.256 24.768 199.16 25.056C199.064 25.312 198.92 25.52 198.728 25.68C198.536 25.84 198.296 25.936 198.008 25.968C197.72 25.968 197.416 25.84 197.096 25.584C195.752 24.496 194.344 23.712 192.872 23.232C191.432 22.72 189.832 22.464 188.072 22.464C186.28 22.464 184.712 22.752 183.368 23.328C182.056 23.904 181.032 24.72 180.296 25.776C179.56 26.832 179.192 28.08 179.192 29.52C179.192 31.184 179.704 32.512 180.728 33.504C181.752 34.496 183.4 35.216 185.672 35.664L190.568 36.672C193.8 37.344 196.2 38.352 197.768 39.696C199.336 41.008 200.12 42.816 200.12 45.12C200.12 46.496 199.832 47.76 199.256 48.912C198.712 50.032 197.912 51.008 196.856 51.84C195.8 52.672 194.52 53.312 193.016 53.76C191.544 54.176 189.864 54.384 187.976 54.384ZM215.26 54.384C213.084 54.384 211.196 53.888 209.596 52.896C207.996 51.904 206.748 50.512 205.852 48.72C204.988 46.928 204.556 44.8 204.556 42.336C204.556 40.512 204.796 38.864 205.276 37.392C205.788 35.92 206.508 34.656 207.436 33.6C208.396 32.512 209.532 31.696 210.844 31.152C212.188 30.576 213.66 30.288 215.26 30.288C217.468 30.288 219.372 30.784 220.972 31.776C222.572 32.768 223.804 34.176 224.668 36C225.564 37.792 226.012 39.904 226.012 42.336C226.012 44.192 225.756 45.856 225.244 47.328C224.764 48.8 224.044 50.064 223.084 51.12C222.156 52.176 221.036 52.992 219.724 53.568C218.412 54.112 216.924 54.384 215.26 54.384ZM215.26 51.936C216.86 51.936 218.236 51.568 219.388 50.832C220.572 50.064 221.468 48.96 222.076 47.52C222.716 46.08 223.036 44.352 223.036 42.336C223.036 39.296 222.332 36.944 220.924 35.28C219.548 33.616 217.66 32.784 215.26 32.784C213.692 32.784 212.316 33.168 211.132 33.936C209.98 34.672 209.084 35.76 208.444 37.2C207.836 38.608 207.532 40.32 207.532 42.336C207.532 45.408 208.236 47.776 209.644 49.44C211.052 51.104 212.924 51.936 215.26 51.936ZM234.604 54.288C234.124 54.288 233.756 54.16 233.5 53.904C233.244 53.648 233.116 53.28 233.116 52.8V33.072H229.708C229.292 33.072 228.956 32.976 228.7 32.784C228.476 32.56 228.364 32.256 228.364 31.872C228.364 31.52 228.476 31.248 228.7 31.056C228.956 30.832 229.292 30.72 229.708 30.72H233.884L233.116 31.488V29.568C233.116 26.624 233.82 24.368 235.228 22.8C236.636 21.232 238.732 20.32 241.516 20.064L242.812 19.968C243.164 19.936 243.436 20 243.628 20.16C243.852 20.288 243.996 20.464 244.06 20.688C244.156 20.912 244.172 21.152 244.108 21.408C244.044 21.632 243.916 21.84 243.724 22.032C243.564 22.192 243.356 22.288 243.1 22.32L241.756 22.464C239.772 22.624 238.316 23.28 237.388 24.432C236.492 25.552 236.044 27.184 236.044 29.328V31.392L235.612 30.72H241.756C242.204 30.72 242.54 30.832 242.764 31.056C242.988 31.248 243.1 31.52 243.1 31.872C243.1 32.256 242.988 32.56 242.764 32.784C242.54 32.976 242.204 33.072 241.756 33.072H236.044V52.8C236.044 53.792 235.564 54.288 234.604 54.288ZM255.093 54.384C253.365 54.384 251.925 54.064 250.773 53.424C249.621 52.784 248.757 51.872 248.181 50.688C247.605 49.472 247.317 47.984 247.317 46.224V33.072H243.765C243.349 33.072 243.013 32.976 242.757 32.784C242.501 32.56 242.373 32.256 242.373 31.872C242.373 31.52 242.501 31.248 242.757 31.056C243.013 30.832 243.349 30.72 243.765 30.72H247.317V24.72C247.317 24.208 247.445 23.84 247.701 23.616C247.957 23.36 248.325 23.232 248.805 23.232C249.253 23.232 249.605 23.36 249.861 23.616C250.117 23.84 250.245 24.208 250.245 24.72V30.72H256.725C257.173 30.72 257.509 30.832 257.733 31.056C257.957 31.248 258.069 31.52 258.069 31.872C258.069 32.256 257.957 32.56 257.733 32.784C257.509 32.976 257.173 33.072 256.725 33.072H250.245V45.84C250.245 47.792 250.645 49.28 251.445 50.304C252.245 51.328 253.573 51.84 255.429 51.84C256.069 51.84 256.597 51.776 257.013 51.648C257.461 51.488 257.829 51.408 258.117 51.408C258.341 51.408 258.533 51.504 258.693 51.696C258.885 51.888 258.981 52.192 258.981 52.608C258.981 52.864 258.917 53.12 258.789 53.376C258.693 53.632 258.501 53.792 258.213 53.856C257.861 53.984 257.381 54.096 256.773 54.192C256.165 54.32 255.605 54.384 255.093 54.384Z" fill="#5B5B5B"/>
</svg>
